<?xml version="1.0"?>
<svg id="Layer_1" data-name="Layer 1" xmlns="http://www.w3.org/2000/svg" viewBox="0 0 561.36 561.36">
  <defs>
    
  </defs>
  <rect class="cls-2" width="561.36" height="561.36"></rect>
  <g>
    <path class="cls-1" d="M240.67,313.97c-1.03-.17-2.06-.35-3.01-.86-.35-.26-.69-.34-1.03-.34-1.55-.34-2.84-.95-4.13-1.72-.17-.17-.34-.34-.52-.43-1.12-.43-1.81-1.29-2.41-2.32-.86-1.72-1.81-3.44-2.24-5.42-.35-1.55-.52-3.18-.6-4.91-.17-1.72-.09-3.53,0-5.33,0-.77.17-.95.95-.95.6-.09,1.2-.17,1.81-.09,2.67,0,5.42-.26,8.09,0,.43.09.69.35.69.78.09.86,0,1.81.09,2.67.09,1.46.34,3.01.52,4.47,0,.26.09.6.17.86.69,2.15,2.24,3.36,4.47,3.44.86.09,1.63.09,2.41-.26,2.07-.86,3.1-2.67,2.84-4.9-.43-3.53-1.63-6.8-4.3-9.47l-.69-.6c-2.15-2.93-4.82-5.34-7.49-7.83l-.77-.78c-1.46-1.81-2.93-3.53-4.3-5.42-.26-.26-.52-.6-.69-.95-.69-2.15-1.89-4.22-2.58-6.45-.77-2.93-.95-5.94-.6-8.95.09-.94.17-1.89.43-2.84.35-1.98,1.38-3.7,2.24-5.42l.34-.52c1.72-2.07,3.79-3.87,6.45-4.82.6-.26,1.29-.43,1.89-.52,2.07-.43,4.22-.43,6.28-.6,1.98.43,3.96.43,5.94,1.03,1.64.43,3.01,1.2,4.39,2.24.69.52,1.29,1.21,1.98,1.98,1.81,2.06,2.67,4.82,3.1,7.83.26,1.89.09,4.22-.43,6.11-.77,2.67-2.67,4.22-5.25,4.73-2.67.69-5.16,0-7.31-1.81-.34-.26-.34-.52,0-.69,1.46-1.03,1.89-2.49,1.98-4.13,0-1.46-.17-2.84-.86-4.13-.52-1.03-1.29-1.63-2.41-1.72-.69-.26-1.89-.26-2.41-.17-2.06.09-3.01,1.12-3.79,3.27-.43,1.03-.43,2.15-.6,3.27,0,.43.09.86.26,1.38,0,.26.17.52.26.78.6,1.37,1.29,2.75,1.89,4.13l4.22,4.13c1.29,1.12,2.41,2.24,3.53,3.53.43.6,1.03,1.21,1.63,1.81,1.29,1.21,2.41,2.32,3.36,3.87.17.26.34.6.6.86,1.98,2.15,2.92,4.73,4.04,7.32,1.38,3.44,1.55,7.05,1.29,10.58-.17,2.32-.95,4.56-1.81,6.71-.34.77-.6,1.55-.95,2.24-.86,1.38-2.15,2.41-3.61,3.01-1.98.86-3.87,1.81-5.94,2.15-.35.09-.69.26-1.12.26-2.06.09-4.22.17-6.28-.09Z"></path>
    <path class="cls-1" d="M268.72,313.2c-1.63,0-1.81,0-1.72-1.72.09-.43,0-.77,0-1.12s-.09-.6-.09-.94c.43-6.45.26-13,.34-19.53,0-2.32,0-4.65-.17-6.97-.09-1.29,0-2.58-.09-3.87,0-5.76,0-11.53-.09-17.3,0-1.72-.09-3.36-.17-4.99-.09-1.29-.09-2.49.17-3.78.09-.52.09-1.03.09-1.55-.17-2.06-.17-4.05-.09-6.11,0-.69.34-.95.95-.95l4.3.26c.43,0,1.12.17,1.46,0,1.72-.43,3.27-.09,4.99,0,1.38.09,2.84.26,4.22-.09.86-.17,1.81.09,2.67,0,3.44-.26,6.88-.17,10.41-.17.6,0,.77.17.86.78.09.52.35,1.03.26,1.55-.35,2.58.09,5.08-.26,7.66-.17.77-.34,1.03-1.2,1.12-1.46,0-2.84.26-4.47,0-1.12.09-2.24,0-3.36,0l-1.55.09c-2.15,0-4.3-.17-6.54,0-.35.09-.52.34-.6.6,0,.17-.09.34-.09.52.17,4.13-.52,8.17-.26,12.31,0,.6,0,1.21.09,1.81.09.52.09,1.12.34,1.55.35.6.95,0,1.46.09,1.81.34,3.7.43,5.51.09.43-.09.77-.09,1.12,0,1.55.34,3.18.26,4.73.26.86,0,.95.09,1.21,1.03.34,1.38.26,2.75.09,4.05-.09,1.72,0,3.44-.09,5.16,0,.52-.26.86-.77.95-.95.17-2.15.34-3.18.34-3.18,0-6.45-.34-9.64,0-.35.09-.6.26-.6.6,0,.52-.09.95-.09,1.38.17,2.24-.09,4.56,0,6.8.09,2.58,0,5.25.26,7.83.09.35-.09.78,0,1.12,0,.26.09.43.35.43.26.09.43.09.69.09,1.98-.26,3.87,0,5.85,0,2.84-.6,6.37.17,9.21-.26h.95c.77.09.95.26.95.95,0,.94.26,1.81.09,2.75-.26,1.55,0,3.18,0,4.73,0,.43-.09.86-.09,1.37-.09.78-.35,1.12-1.12,1.12-1.81,0-3.61.17-6.11-.17-.26-.09-.6-.17-.86-.09-1.29.34-2.58.17-3.87.26-5.25.43-10.5.09-15.75.09-.17,0-.43,0-.69-.09Z"></path>
    <path class="cls-1" d="M330.67,315.09c-.26-.09-.43-.09-.6-.26-1.55-1.12-3.1-2.24-3.7-4.13-.6-2.15-1.55-4.65-1.55-6.97,0-.09-.09-.09-.09-.17-.26-1.89-1.12-2.67-3.01-2.32-2.58.34-5.16.17-7.66.17-.35,0-.6,0-.86.09-.35.09-.6.26-.69.52l-1.03,5.33c-.35,1.29-.6,3.18-.86,4.47l-.35.86c-.17.34-.43.6-.86.6-.86,0-1.81.09-2.67.09-2.24-.09-4.56-.09-6.8-.17h-.69c-.34,0-.6-.34-.52-.77.26-1.38.52-3.36.86-4.73.77-3.79,1.72-7.57,2.41-11.45.34-1.98.95-3.87.95-5.93,0-.86.26-1.63.52-2.41.52-1.98.77-3.96,1.12-6.02.17-1.12.43-2.32.69-3.53.26-1.55.52-3.1.69-4.65.09-1.63.43-3.27.77-4.82.52-2.67,1.2-5.25,1.81-7.92.26-1.46.43-3.01.69-4.47.43-2.41.69-4.9,1.03-7.32.26-1.29.6-2.58.95-3.96.17-.43.69-.78,1.21-.78,1.12.09,2.41.09,3.44.17,2.93.17,5.59-.26,8.52-.09h1.55c.6.09,1.03.43,1.21.94.52,1.81.77,3.61,1.03,5.51.43,2.24.77,4.39,1.12,6.63.26,1.55.35,3.1.6,4.65s.43,3.01.86,4.47c.77,3.27,1.21,6.63,1.72,9.89l1.81,12.05c.26,2.58.6,5.16.95,7.74.43,3.01,1.29,5.85,1.63,8.86.17,1.38.43,2.84.86,4.22.43,1.29,1.2,3.01,2.41,3.87.43.34,1.12.26,0,1.12-1.63,1.29-3.53,1.72-5.51,1.38-1.38-.17-2.67-.52-3.96-.78ZM320.26,290.65c.6,0,1.12-.09,1.72,0,.77.09,1.03-.26.95-1.12-.34-2.58-.86-5.16-1.12-7.74-.35-3.27-.77-6.54-1.38-9.81-.52-2.75-.77-5.25-1.21-8,0-.09-.26-.34-.26-.43-.26-.09-.34.17-.43.34-.09.77-.26,1.29-.43,2.06-.26,1.29-.43,2.67-.69,3.96-.17,1.2-.52,2.41-.69,3.53-.34,2.67-.6,5.42-.86,8.09-.09,0-.17.52-.17.52-.43,2.75-.69,4.9-1.12,7.66-.09.78,0,1.03.69,1.03,1.63,0,3.1.17,4.99-.09Z"></path>
    <path class="cls-1" d="M360.53,312.43v-2.24c0-3.18.17-6.45-.17-9.64-.17-2.32,0-4.65,0-6.97l.26-18.24c0-.52,0-1.12-.09-1.63-.35-1.38-.26-2.84-.09-4.22.26-2.24.43-4.47,0-6.71-.09-.43-.09-.95,0-1.38v-6.37c.09-2.84.09-5.59.09-8.35,0-2.15.09-2.15,2.06-2.15.35,0,.69.09.95,0,1.81-.43,3.53-.17,5.34.09,1.03.09,2.07.09,3.18.09.69,0,.86.26.95,1.03v5.34c0,1.2-.09,2.32-.17,3.44v3.01c0,3.78-.09,7.14,0,10.76,0,.69.09,1.37.09,2.06.09.6.17,1.21.17,1.81-.26,1.55,0,3.1-.26,4.65-.09.26-.09.43-.09.69.35,3.27.09,6.63.26,9.9,0,1.72.09,3.44.17,5.16,0,2.67.09,4.9.09,7.57,0,1.89-.09,2.15,2.06,2.15,3.96,0,8.18-.34,11.96,0,.52.09,1.03,0,1.55,0,.34.09.52.34.52.95.09.17.09.34.09.52-.17,2.58.17,5.42-.09,8q-.09,1.12-1.38,1.38c-1.12.17-2.24.26-3.27.17-4.73,0-9.47.09-14.2,0-.52,0-1.03-.09-1.55-.17-.52-.09-1.03-.17-1.55-.09-2.06.43-4.04.26-6.11.26-.6,0-.77-.26-.77-.86Z"></path>
    <path class="cls-1" d="M396.84,313.2c-1.63,0-1.81,0-1.72-1.72.09-.43,0-.77,0-1.12s-.09-.6-.09-.94c.43-6.45.26-13,.34-19.53,0-2.32,0-4.65-.17-6.97-.09-1.29,0-2.58-.09-3.87,0-5.76,0-11.53-.09-17.3,0-1.72-.09-3.36-.17-4.99-.09-1.29-.09-2.49.17-3.78.09-.52.09-1.03.09-1.55-.17-2.06-.17-4.05-.09-6.11,0-.69.34-.95.95-.95l4.3.26c.43,0,1.12.17,1.46,0,1.72-.43,3.27-.09,4.99,0,1.38.09,2.84.26,4.22-.09.86-.17,1.81.09,2.67,0,3.44-.26,6.88-.17,10.41-.17.6,0,.77.17.86.78.09.52.35,1.03.26,1.55-.35,2.58.09,5.08-.26,7.66-.17.77-.34,1.03-1.2,1.12-1.46,0-2.84.26-4.47,0-1.12.09-2.24,0-3.36,0l-1.55.09c-2.15,0-4.3-.17-6.54,0-.35.09-.52.34-.6.6,0,.17-.09.34-.09.52.17,4.13-.52,8.17-.26,12.31,0,.6,0,1.21.09,1.81.09.52.09,1.12.34,1.55.35.6.95,0,1.46.09,1.81.34,3.7.43,5.51.09.43-.09.77-.09,1.12,0,1.55.34,3.18.26,4.73.26.86,0,.95.09,1.21,1.03.34,1.38.26,2.75.09,4.05-.09,1.72,0,3.44-.09,5.16,0,.52-.26.86-.77.95-.95.17-2.15.34-3.18.34-3.18,0-6.45-.34-9.64,0-.35.09-.6.26-.6.6,0,.52-.09.95-.09,1.38.17,2.24-.09,4.56,0,6.8.09,2.58,0,5.25.26,7.83.09.35-.09.78,0,1.12,0,.26.09.43.35.43.26.09.43.09.69.09,1.98-.26,3.87,0,5.85,0,2.84-.6,6.37.17,9.21-.26h.95c.77.09.95.26.95.95,0,.94.26,1.81.09,2.75-.26,1.55,0,3.18,0,4.73,0,.43-.09.86-.09,1.37-.09.78-.35,1.12-1.12,1.12-1.81,0-3.61.17-6.11-.17-.26-.09-.6-.17-.86-.09-1.29.34-2.58.17-3.87.26-5.25.43-10.5.09-15.75.09-.17,0-.43,0-.69-.09Z"></path>
    <path class="cls-1" d="M441.23,313.89c-2.15-.43-4.47-.86-6.02-2.67-2.5-1.98-3.53-4.73-4.47-7.49-.43-1.21-.6-2.49-.52-3.78,0-2.32,0-4.65.26-6.97.09-.94,0-1.81-.09-2.75-.26-2.24-.34-4.73-.09-6.97.34-3.7.09-7.32.17-10.84,0-1.03,0-2.15-.26-3.18-.17-.52-.17-.94,0-1.46.17-1.2.34-2.58.09-3.78-.35-2.06-.09-4.3.09-6.37.34-3.01,1.29-5.77,3.61-7.92.17-.17.35-.34.43-.52,2.5-2.75,5.68-4.21,9.29-4.9,1.72-.34,3.44-.52,5.16-.09.09.09.26.09.43.09,2.67-.26,4.9,1.21,7.23,2.15.34.09.69.34.95.6,1.89,1.72,3.79,3.53,4.39,6.28.17.95.69,1.89.95,2.93.17.69.34,1.46.34,2.24,0,1.29-.09,2.75-.17,4.13-.17,2.15-1.2,3.96-2.75,5.42-.52.43-1.03.78-1.72.95-.95.26-1.89.6-2.84.78-.52.09-1.03.09-1.55,0-1.29-.26-2.5-.6-3.7-1.03-.77-.34-1.38-.86-1.81-1.55-.09-.09-.09-.34,0-.43.26-.17.52-.35.77-.43,1.2-.6,1.89-1.55,2.24-2.67.6-2.24.6-4.47-.17-6.54-.34-1.12-1.2-1.81-2.24-2.06-1.55-.34-3.1-.43-4.65.34-1.29.6-2.15,1.63-2.15,3.1-.09,1.46-.43,2.93-.17,4.39.26.95.17,1.98-.09,3.1-.17.78-.09,1.63-.09,2.41.26,7.23-.35,11.87,0,21.68,0,.86-.09,1.81-.17,2.67-.26,2.5-.17,5.08.35,7.49.26,1.21.77,2.24,1.81,3.01.69.43,1.38.6,2.15.6h1.81c.6-.09,1.12-.17,1.63-.52,1.46-1.21,2.32-2.58,2.5-4.56,0-.6.09-1.21.09-1.89,0-2.32.09-4.56.09-6.89,0-.77.09-1.46,0-2.24,0-.43,0-.95-.43-.95-.86,0-2.15.09-3.27.09-.77-.09-1.12-.34-1.21-1.12-.09-.95-.09-1.81-.09-2.58-.09-1.81-.09-3.53,0-5.16v-.43c0-.35.43-.69.77-.69,1.21,0,2.41-.17,3.53.09,1.2.26,2.32.26,3.36,0,2.41-.52,4.82-.09,7.14.09.43.09.69.43.77.78.09.43.09.86.09,1.29-.26,2.41-.09,4.65-.09,7.06-.09,2.06,0,3.96,0,6.02v1.21c0,3.1-.17,4.99-.17,8.09,0,1.98.26,3.78,0,5.76.26.95-.09,1.81.09,2.84v1.46c0,1.38-.09,1.55-1.46,1.46l-.86.09c-.86-.26-1.89-.17-2.75-.09-.69.09-1.29-.17-1.63-.86-.26-.43-.43-.86-.69-1.2-.77-1.46-.86-1.46-1.89-.17-.6.77-1.46,1.12-2.15,1.63-1.03.69-1.63,1.03-2.84,1.29-.86.17-1.81.43-2.67.35s-1.63,0-2.41.09c-.77,0-1.55-.09-2.24-.26Z"></path>
    <path class="cls-1" d="M482.1,313.97c-1.03-.17-2.06-.35-3.01-.86-.34-.26-.69-.34-1.03-.34-1.55-.34-2.84-.95-4.13-1.72-.17-.17-.35-.34-.52-.43-1.12-.43-1.81-1.29-2.41-2.32-.86-1.72-1.81-3.44-2.24-5.42-.34-1.55-.52-3.18-.6-4.91-.17-1.72-.09-3.53,0-5.33,0-.77.17-.95.95-.95.6-.09,1.2-.17,1.81-.09,2.67,0,5.42-.26,8.09,0,.43.09.69.35.69.78.09.86,0,1.81.09,2.67.09,1.46.35,3.01.52,4.47,0,.26.09.6.17.86.69,2.15,2.24,3.36,4.47,3.44.86.09,1.63.09,2.41-.26,2.07-.86,3.1-2.67,2.84-4.9-.43-3.53-1.64-6.8-4.3-9.47l-.69-.6c-2.15-2.93-4.82-5.34-7.49-7.83l-.77-.78c-1.46-1.81-2.93-3.53-4.3-5.42-.26-.26-.52-.6-.69-.95-.69-2.15-1.89-4.22-2.58-6.45-.77-2.93-.95-5.94-.6-8.95.09-.94.17-1.89.43-2.84.34-1.98,1.38-3.7,2.24-5.42l.34-.52c1.72-2.07,3.79-3.87,6.45-4.82.6-.26,1.29-.43,1.89-.52,2.06-.43,4.22-.43,6.28-.6,1.98.43,3.96.43,5.94,1.03,1.63.43,3.01,1.2,4.39,2.24.69.52,1.29,1.21,1.98,1.98,1.81,2.06,2.67,4.82,3.1,7.83.26,1.89.09,4.22-.43,6.11-.77,2.67-2.67,4.22-5.25,4.73-2.67.69-5.16,0-7.31-1.81-.35-.26-.35-.52,0-.69,1.46-1.03,1.89-2.49,1.98-4.13,0-1.46-.17-2.84-.86-4.13-.52-1.03-1.29-1.63-2.41-1.72-.69-.26-1.89-.26-2.41-.17-2.07.09-3.01,1.12-3.79,3.27-.43,1.03-.43,2.15-.6,3.27,0,.43.09.86.26,1.38,0,.26.17.52.26.78.6,1.37,1.29,2.75,1.89,4.13l4.22,4.13c1.29,1.12,2.41,2.24,3.53,3.53.43.6,1.03,1.21,1.63,1.81,1.29,1.21,2.41,2.32,3.36,3.87.17.26.34.6.6.86,1.98,2.15,2.93,4.73,4.05,7.32,1.38,3.44,1.55,7.05,1.29,10.58-.17,2.32-.95,4.56-1.81,6.71-.34.77-.6,1.55-.95,2.24-.86,1.38-2.15,2.41-3.61,3.01-1.98.86-3.87,1.81-5.94,2.15-.35.09-.69.26-1.12.26-2.06.09-4.22.17-6.28-.09Z"></path>
  </g>
  <path class="cls-1" d="M193.62,261.43c-6.88-13.12-23.4-19.61-37.65-14.77-7.89,2.8-14.44,7.93-20.04,15.69-5.21,4.21-12.66,8.45-17.84,7.73-1.91-.25-3.39-1.15-4.51-2.7-1.26-1.96-1.65-3.86-1.19-5.82.68-2.83,3.13-5.9,7.11-8.87,1.92-1.43,4.25-2.21,6.77-2.23h1.06s-.06-6.01-.06-6.01h-1.09c-1.43.03-2.86.04-4.3.07-3.04.03-6.63.08-10.29.27h-.09s-.06-.09-.06-.09l-.5.12c-3.38.17-6.55.44-9.45.82-14.91,1.97-25.05,7.07-31.93,16.07-7.51,10.03-8.57,23.95-2.65,34.63,5.22,9.94,16.16,16.36,27.86,16.36,3.37,0,6.66-.54,9.8-1.6,7.88-2.8,14.43-7.93,20.03-15.67,5.21-4.21,12.63-8.43,17.85-7.74,1.91.25,3.39,1.15,4.51,2.71,1.26,1.96,1.65,3.86,1.19,5.82-.65,2.72-2.94,5.66-6.64,8.51-2.14,1.65-4.79,2.57-7.49,2.6h-.83l.22,6.01h.78c1.47-.02,2.98-.03,4.46-.06,3.03-.03,6.63-.08,10.32-.27,3.66-.16,6.96-.45,10.08-.87,14.94-1.97,25.09-7.07,31.96-16.06,7.5-10.03,8.56-23.95,2.63-34.63ZM151.91,287.01c-2.16-3.03-5.08-4.81-8.67-5.29-.65-.09-1.31-.13-1.99-.13-3.02,0-6.37.85-10,2.53.07-.13.12-.25.17-.35,5.44-4.15,11.06-8.4,17.51-9.36,6.49-1.09,13.13,3.02,14.83,9.18,2.92,10.08-6.05,17.36-15.45,23.17,3.02-2.95,4.93-6.02,5.67-9.17.85-3.59.17-7.14-2.06-10.59ZM169.53,281.97c-2.22-8.05-10.17-13.73-18.52-13.73-1,0-2.02.08-3.03.25-2.08.31-4.13.87-6.23,1.72,5.2-4.27,10.81-7.66,17.1-7.66.12,0,.24,0,.36,0,4.59.06,9.19,1.83,12.65,4.87,6.79,5.75,8.54,16.37,3.98,24.2-3,5.32-7.9,8.94-13.45,12.1,6.96-6.78,9.36-14.09,7.14-21.76ZM181.04,294.62c5.97-10.24,3.66-24.18-5.27-31.73-4.48-3.94-10.48-6.25-16.46-6.33-.17,0-.34,0-.51,0-4.43,0-8.75,1.21-13.29,3.75,3.71-3.7,7.8-6.32,12.42-7.96,11.49-3.9,24.84,1.33,30.4,11.95,4.82,8.68,3.96,19.99-2.14,28.15-2.63,3.44-5.88,6.2-9.84,8.36,1.9-1.94,3.45-3.99,4.69-6.19ZM79.49,263.14c-5.98,10.24-3.66,24.19,5.27,31.75,4.47,3.93,10.46,6.23,16.44,6.31h.51c4.31,0,8.67-1.2,13.23-3.67-3.69,3.66-7.76,6.26-12.35,7.89-11.49,3.9-24.84-1.34-30.4-11.94-4.82-8.68-3.96-20,2.15-28.15,2.61-3.41,5.81-6.15,9.72-8.31-1.82,1.9-3.33,3.93-4.56,6.11ZM84.7,266.12c3.04-5.4,7.95-9.01,13.49-12.14-7,6.79-9.42,14.11-7.19,21.82,2.2,7.95,9.98,13.72,18.52,13.72,1.02,0,2.04-.09,3.02-.25,2.24-.33,4.45-.96,6.73-1.94-5.32,4.31-11.24,7.87-17.66,7.87-.1,0-.21,0-.31,0-4.59-.06-9.19-1.83-12.63-4.86-6.8-5.76-8.55-16.39-3.98-24.22ZM96.78,274.16c-2.92-10.08,6.06-17.36,15.45-23.16-3.02,2.95-4.93,6.02-5.67,9.16-.85,3.59-.17,7.14,2.06,10.59,2.16,3.03,5.08,4.81,8.68,5.28,3.6.49,7.54-.36,12.01-2.44-.06.13-.13.26-.19.39-5.44,4.15-11.06,8.4-17.51,9.36-6.46,1.1-13.12-3.02-14.82-9.18Z"></path>
</svg>