<?xml version="1.0"?>
<svg fill="#0B0F0E" id="Layer_1" data-name="Layer 1" xmlns="http://www.w3.org/2000/svg" viewBox="0 0 561.36 561.36">
  <defs>
    
  </defs>
  
  <path class="cls-2" d="M474.35,228.58c-21.08-40.2-71.72-60.09-115.37-45.25-24.17,8.58-44.25,24.3-61.41,48.07-15.97,12.91-38.79,25.89-54.68,23.68-5.86-.77-10.4-3.52-13.82-8.29-3.87-5.99-5.06-11.83-3.63-17.84,2.07-8.68,9.61-18.08,21.8-27.17,5.9-4.39,13.03-6.76,20.73-6.83l3.24-.02-.19-18.41-3.35.04c-4.37.04-8.78.09-13.17.17-9.3.08-20.32.24-31.54.82h-.29s-.19-.27-.19-.27l-1.53.38c-10.34.51-20.08,1.36-28.97,2.52-45.68,6.04-76.76,21.68-97.84,49.24-23.03,30.73-26.28,73.4-8.13,106.11,16.01,30.46,49.54,50.14,85.39,50.14,10.31,0,20.41-1.65,30.04-4.92,24.15-8.57,44.23-24.29,61.38-48.04,15.97-12.9,38.72-25.85,54.69-23.71,5.86.78,10.4,3.52,13.81,8.29,3.87,5.99,5.06,11.83,3.63,17.84-1.99,8.32-9.02,17.34-20.35,26.08-6.57,5.06-14.68,7.88-22.96,7.96h-2.54l.68,18.41,2.38-.02c4.51-.04,9.14-.09,13.67-.17,9.29-.08,20.31-.24,31.61-.82,11.21-.5,21.32-1.38,30.91-2.68,45.77-6.05,76.9-21.68,97.94-49.21,22.98-30.74,26.22-73.38,8.06-106.12ZM346.53,306.97c-6.62-9.28-15.57-14.73-26.58-16.2-1.98-.26-4.01-.39-6.1-.39-9.26,0-19.52,2.6-30.65,7.75.2-.41.38-.77.53-1.07,16.66-12.71,33.89-25.75,53.66-28.68,19.89-3.35,40.24,9.27,45.44,28.13,8.94,30.89-18.55,53.21-47.36,70.99,9.25-9.03,15.09-18.45,17.39-28.09,2.62-11,.52-21.88-6.32-32.44ZM400.53,291.51c-6.81-24.67-31.15-42.07-56.75-42.07-3.08,0-6.18.25-9.27.77-6.38.95-12.66,2.67-19.09,5.28,15.94-13.09,33.11-23.46,52.39-23.46.36,0,.73,0,1.09,0,14.06.19,28.17,5.62,38.75,14.93,20.82,17.62,26.18,50.18,12.2,74.16-9.19,16.31-24.22,27.4-41.21,37.08,21.33-20.78,28.69-43.17,21.89-66.69ZM435.81,330.28c18.31-31.37,11.2-74.1-16.14-97.24-13.72-12.07-32.12-19.14-50.45-19.4-.52,0-1.04-.01-1.56-.01-13.58,0-26.82,3.7-40.71,11.49,11.36-11.34,23.92-19.38,38.07-24.4,35.23-11.96,76.13,4.09,93.16,36.62,14.77,26.6,12.13,61.27-6.56,86.28-8.06,10.54-18.01,19.01-30.16,25.62,5.82-5.95,10.57-12.23,14.36-18.96ZM124.61,233.82c-18.33,31.39-11.22,74.14,16.14,97.29,13.69,12.04,32.06,19.09,50.39,19.34h1.56c13.21.01,26.57-3.69,40.54-11.24-11.3,11.21-23.79,19.17-37.85,24.17-35.22,11.95-76.11-4.1-93.17-36.58-14.78-26.6-12.12-61.28,6.6-86.27,7.99-10.45,17.81-18.86,29.79-25.45-5.59,5.82-10.22,12.03-13.98,18.74ZM140.57,242.96c9.3-16.56,24.36-27.61,41.34-37.21-21.44,20.82-28.86,43.25-22.03,66.86,6.73,24.37,30.6,42.06,56.76,42.06,3.14,0,6.26-.26,9.25-.77,6.85-1.01,13.64-2.95,20.64-5.93-16.31,13.22-34.45,24.11-54.11,24.11-.32,0-.64,0-.96,0-14.06-.2-28.16-5.61-38.72-14.88-20.83-17.64-26.19-50.22-12.19-74.22ZM177.58,267.59c-8.94-30.89,18.56-53.21,47.35-70.99-9.25,9.03-15.09,18.45-17.39,28.08-2.62,11-.52,21.89,6.32,32.44,6.62,9.28,15.57,14.73,26.6,16.19,11.03,1.5,23.11-1.12,36.79-7.48-.19.4-.39.79-.58,1.19-16.66,12.71-33.91,25.75-53.67,28.69-19.79,3.36-40.21-9.25-45.43-28.13Z"></path>
</svg>