<?xml version="1.0"?>
<svg fill="#16E0A6" id="Layer_1" data-name="Layer 1" xmlns="http://www.w3.org/2000/svg" viewBox="0 0 949.05 543.05">
  <defs>
    
  </defs>
  
  <g>
    <path class="cls-1" d="M144.77,362.39c-2.74-.46-5.48-.92-7.99-2.29-.92-.68-1.83-.91-2.74-.91-4.11-.91-7.53-2.52-10.96-4.57-.46-.46-.91-.91-1.37-1.14-2.97-1.15-4.79-3.43-6.39-6.17-2.28-4.57-4.79-9.13-5.93-14.38-.92-4.11-1.37-8.45-1.6-13.02-.46-4.57-.23-9.36,0-14.16,0-2.05.46-2.52,2.51-2.52,1.6-.23,3.2-.46,4.79-.23,7.08,0,14.39-.68,21.47,0,1.14.23,1.82.92,1.82,2.06.23,2.28,0,4.79.23,7.08.23,3.88.91,7.99,1.37,11.87,0,.69.23,1.6.46,2.29,1.83,5.71,5.94,8.91,11.88,9.13,2.28.23,4.34.23,6.39-.68,5.48-2.29,8.22-7.08,7.54-13.02-1.14-9.36-4.34-18.04-11.42-25.12l-1.83-1.6c-5.71-7.77-12.79-14.16-19.87-20.78l-2.06-2.06c-3.88-4.79-7.77-9.36-11.42-14.38-.68-.69-1.37-1.6-1.82-2.52-1.83-5.71-5.03-11.19-6.85-17.13-2.06-7.77-2.51-15.76-1.6-23.75.23-2.51.46-5.02,1.14-7.54.92-5.25,3.66-9.82,5.94-14.38l.91-1.37c4.57-5.49,10.05-10.28,17.13-12.79,1.6-.69,3.42-1.15,5.02-1.38,5.48-1.14,11.19-1.14,16.67-1.6,5.25,1.14,10.51,1.14,15.76,2.74,4.34,1.14,7.99,3.19,11.65,5.93,1.83,1.37,3.43,3.2,5.25,5.25,4.79,5.48,7.08,12.79,8.22,20.78.68,5.02.23,11.19-1.14,16.22-2.06,7.08-7.08,11.19-13.93,12.56-7.08,1.82-13.7,0-19.41-4.79-.91-.68-.91-1.37,0-1.83,3.88-2.74,5.02-6.62,5.25-10.96,0-3.88-.46-7.54-2.29-10.97-1.37-2.74-3.42-4.34-6.39-4.57-1.83-.68-5.02-.68-6.39-.46-5.48.23-7.99,2.97-10.05,8.68-1.14,2.74-1.14,5.71-1.6,8.68,0,1.14.23,2.29.68,3.66,0,.68.46,1.37.68,2.06,1.6,3.65,3.43,7.3,5.03,10.96l11.19,10.97c3.43,2.96,6.39,5.93,9.37,9.36,1.14,1.6,2.74,3.2,4.34,4.79,3.42,3.2,6.39,6.17,8.91,10.28.46.68.91,1.6,1.6,2.28,5.25,5.71,7.76,12.56,10.73,19.42,3.66,9.13,4.11,18.72,3.43,28.09-.46,6.16-2.52,12.1-4.8,17.81-.91,2.05-1.6,4.11-2.51,5.93-2.28,3.66-5.71,6.4-9.59,7.99-5.25,2.29-10.27,4.79-15.76,5.71-.92.23-1.83.68-2.97.68-5.48.23-11.19.46-16.67-.23Z"></path>
    <path class="cls-1" d="M219.22,360.33c-4.34,0-4.79,0-4.57-4.57.23-1.14,0-2.05,0-2.97s-.23-1.6-.23-2.51c1.14-17.13.68-34.49.91-51.85,0-6.16,0-12.33-.46-18.5-.23-3.43,0-6.85-.23-10.28,0-15.3,0-30.6-.23-45.91,0-4.57-.23-8.91-.46-13.24-.23-3.43-.23-6.62.46-10.05.23-1.37.23-2.74.23-4.11-.46-5.48-.46-10.74-.23-16.22,0-1.82.91-2.52,2.51-2.52l11.42.69c1.14,0,2.97.46,3.88,0,4.57-1.15,8.68-.23,13.24,0,3.66.23,7.54.68,11.19-.23,2.28-.46,4.79.23,7.08,0,9.14-.69,18.27-.46,27.63-.46,1.6,0,2.06.46,2.28,2.06.23,1.37.92,2.74.69,4.11-.92,6.85.23,13.47-.69,20.33-.46,2.05-.91,2.74-3.2,2.96-3.88,0-7.54.69-11.88,0-2.97.24-5.94,0-8.91,0l-4.11.24c-5.71,0-11.42-.46-17.36,0-.92.23-1.37.91-1.6,1.6,0,.46-.23.91-.23,1.37.46,10.97-1.37,21.7-.68,32.66,0,1.6,0,3.2.23,4.79.23,1.38.23,2.97.91,4.11.92,1.6,2.51,0,3.88.23,4.79.91,9.82,1.14,14.62.23,1.14-.23,2.06-.23,2.97,0,4.11.91,8.45.68,12.56.68,2.28,0,2.52.23,3.2,2.74.91,3.66.68,7.31.23,10.74-.23,4.57,0,9.13-.23,13.7,0,1.37-.68,2.28-2.06,2.52-2.51.46-5.71.91-8.45.91-8.45,0-17.13-.91-25.58,0-.92.23-1.6.68-1.6,1.6,0,1.37-.23,2.52-.23,3.66.46,5.93-.23,12.11,0,18.04.23,6.85,0,13.94.68,20.78.23.92-.23,2.06,0,2.97,0,.68.23,1.14.92,1.14.68.23,1.14.23,1.82.23,5.25-.68,10.28,0,15.53,0,7.53-1.6,16.9.46,24.44-.68h2.51c2.06.23,2.51.68,2.51,2.52,0,2.51.68,4.79.23,7.31-.68,4.11,0,8.45,0,12.56,0,1.14-.23,2.28-.23,3.65-.23,2.06-.92,2.97-2.97,2.97-4.8,0-9.59.46-16.22-.46-.69-.23-1.6-.46-2.28-.23-3.43.91-6.85.46-10.28.68-13.93,1.14-27.87.23-41.79.23-.46,0-1.14,0-1.83-.23Z"></path>
    <path class="cls-1" d="M383.66,365.35c-.68-.23-1.14-.23-1.6-.68-4.11-2.97-8.22-5.93-9.82-10.96-1.6-5.71-4.11-12.33-4.11-18.5,0-.23-.23-.23-.23-.46-.68-5.02-2.97-7.08-7.99-6.16-6.85.91-13.7.46-20.33.46-.92,0-1.6,0-2.28.23-.92.23-1.6.68-1.83,1.37l-2.74,14.16c-.92,3.43-1.6,8.45-2.28,11.88l-.92,2.29c-.46.91-1.14,1.6-2.28,1.6-2.28,0-4.79.23-7.08.23-5.94-.23-12.11-.23-18.04-.46h-1.83c-.91,0-1.6-.91-1.37-2.05.69-3.66,1.37-8.91,2.29-12.56,2.05-10.05,4.57-20.1,6.39-30.38.91-5.25,2.51-10.27,2.51-15.75,0-2.29.68-4.34,1.37-6.4,1.37-5.25,2.06-10.5,2.97-15.99.46-2.96,1.14-6.16,1.83-9.36.68-4.11,1.37-8.22,1.83-12.33.23-4.34,1.14-8.68,2.06-12.79,1.37-7.08,3.2-13.93,4.79-21.01.68-3.88,1.14-7.99,1.83-11.88,1.14-6.39,1.83-13.02,2.74-19.42.68-3.42,1.6-6.85,2.51-10.5.46-1.14,1.83-2.06,3.2-2.06,2.97.24,6.39.24,9.13.46,7.77.46,14.84-.69,22.61-.23h4.11c1.6.23,2.74,1.14,3.2,2.51,1.37,4.79,2.05,9.59,2.74,14.62,1.14,5.93,2.06,11.64,2.97,17.58.69,4.11.92,8.22,1.6,12.33.68,4.11,1.14,7.99,2.28,11.88,2.06,8.68,3.2,17.58,4.57,26.26l4.8,31.98c.68,6.85,1.6,13.7,2.51,20.55,1.14,7.99,3.42,15.53,4.34,23.53.46,3.66,1.14,7.54,2.28,11.19,1.14,3.43,3.2,7.99,6.39,10.27,1.14.91,2.97.68,0,2.97-4.34,3.43-9.36,4.57-14.62,3.66-3.66-.46-7.08-1.37-10.51-2.06ZM356.02,300.49c1.6,0,2.97-.23,4.57,0,2.06.23,2.74-.68,2.51-2.97-.91-6.85-2.28-13.7-2.97-20.56-.92-8.68-2.06-17.36-3.66-26.03-1.37-7.31-2.06-13.93-3.2-21.24,0-.23-.68-.91-.68-1.14-.68-.23-.91.46-1.14.91-.23,2.05-.69,3.43-1.14,5.48-.68,3.43-1.14,7.08-1.83,10.51-.46,3.19-1.37,6.39-1.83,9.36-.91,7.08-1.6,14.38-2.28,21.47-.23,0-.46,1.37-.46,1.37-1.14,7.31-1.83,13.02-2.97,20.33-.23,2.06,0,2.74,1.82,2.74,4.34,0,8.22.46,13.25-.23Z"></path>
    <path class="cls-1" d="M462.9,358.28v-5.94c0-8.45.46-17.13-.46-25.58-.46-6.16,0-12.33,0-18.5l.69-48.42c0-1.37,0-2.97-.23-4.34-.92-3.66-.69-7.54-.23-11.19.69-5.93,1.14-11.87,0-17.81-.23-1.14-.23-2.52,0-3.66v-16.9c.23-7.54.23-14.84.23-22.15,0-5.71.23-5.71,5.48-5.71.92,0,1.83.23,2.51,0,4.8-1.15,9.37-.46,14.16.23,2.74.23,5.48.23,8.45.23,1.83,0,2.28.68,2.51,2.74v14.16c0,3.19-.23,6.16-.46,9.13v7.99c0,10.05-.23,18.95,0,28.55,0,1.82.23,3.65.23,5.48.23,1.6.46,3.2.46,4.79-.69,4.11,0,8.22-.69,12.33-.23.68-.23,1.14-.23,1.82.92,8.69.23,17.59.68,26.27,0,4.57.23,9.13.46,13.7,0,7.08.23,13.02.23,20.1,0,5.02-.23,5.71,5.48,5.71,10.51,0,21.7-.91,31.75,0,1.37.23,2.74,0,4.11,0,.91.23,1.37.91,1.37,2.52.23.46.23.91.23,1.37-.46,6.85.46,14.39-.23,21.24q-.23,2.97-3.66,3.66c-2.97.46-5.93.68-8.68.46-12.56,0-25.12.23-37.68,0-1.37,0-2.74-.23-4.11-.46-1.37-.23-2.74-.46-4.11-.23-5.48,1.14-10.73.68-16.21.68-1.6,0-2.06-.68-2.06-2.28Z"></path>
    <path class="cls-1" d="M559.27,360.33c-4.34,0-4.79,0-4.57-4.57.23-1.14,0-2.05,0-2.97s-.23-1.6-.23-2.51c1.14-17.13.68-34.49.91-51.85,0-6.16,0-12.33-.46-18.5-.23-3.43,0-6.85-.23-10.28,0-15.3,0-30.6-.23-45.91,0-4.57-.23-8.91-.46-13.24-.23-3.43-.23-6.62.46-10.05.23-1.37.23-2.74.23-4.11-.46-5.48-.46-10.74-.23-16.22,0-1.82.91-2.52,2.51-2.52l11.42.69c1.14,0,2.97.46,3.88,0,4.57-1.15,8.68-.23,13.24,0,3.66.23,7.54.68,11.19-.23,2.28-.46,4.79.23,7.08,0,9.14-.69,18.27-.46,27.63-.46,1.6,0,2.06.46,2.28,2.06.23,1.37.92,2.74.69,4.11-.92,6.85.23,13.47-.69,20.33-.46,2.05-.91,2.74-3.2,2.96-3.88,0-7.54.69-11.88,0-2.97.24-5.94,0-8.91,0l-4.11.24c-5.71,0-11.42-.46-17.36,0-.92.23-1.37.91-1.6,1.6,0,.46-.23.91-.23,1.37.46,10.97-1.37,21.7-.68,32.66,0,1.6,0,3.2.23,4.79.23,1.38.23,2.97.91,4.11.92,1.6,2.51,0,3.88.23,4.79.91,9.82,1.14,14.62.23,1.14-.23,2.06-.23,2.97,0,4.11.91,8.45.68,12.56.68,2.28,0,2.52.23,3.2,2.74.91,3.66.68,7.31.23,10.74-.23,4.57,0,9.13-.23,13.7,0,1.37-.68,2.28-2.06,2.52-2.51.46-5.71.91-8.45.91-8.45,0-17.13-.91-25.58,0-.92.23-1.6.68-1.6,1.6,0,1.37-.23,2.52-.23,3.66.46,5.93-.23,12.11,0,18.04.23,6.85,0,13.94.68,20.78.23.92-.23,2.06,0,2.97,0,.68.23,1.14.92,1.14.68.23,1.14.23,1.82.23,5.25-.68,10.28,0,15.53,0,7.53-1.6,16.9.46,24.44-.68h2.51c2.06.23,2.51.68,2.51,2.52,0,2.51.68,4.79.23,7.31-.68,4.11,0,8.45,0,12.56,0,1.14-.23,2.28-.23,3.65-.23,2.06-.92,2.97-2.97,2.97-4.8,0-9.59.46-16.22-.46-.69-.23-1.6-.46-2.28-.23-3.43.91-6.85.46-10.28.68-13.93,1.14-27.87.23-41.79.23-.46,0-1.14,0-1.83-.23Z"></path>
    <path class="cls-1" d="M677.1,362.16c-5.71-1.15-11.87-2.29-15.98-7.08-6.62-5.25-9.36-12.56-11.88-19.87-1.14-3.2-1.6-6.62-1.37-10.05,0-6.17,0-12.33.68-18.5.23-2.51,0-4.79-.23-7.3-.68-5.94-.91-12.56-.23-18.5.91-9.82.23-19.42.46-28.78,0-2.74,0-5.71-.68-8.45-.46-1.37-.46-2.51,0-3.88.46-3.19.91-6.85.23-10.05-.92-5.48-.23-11.42.23-16.9.91-7.99,3.43-15.3,9.59-21.01.46-.46.92-.91,1.14-1.38,6.62-7.3,15.07-11.19,24.67-13.02,4.57-.91,9.13-1.37,13.7-.23.23.23.69.23,1.14.23,7.08-.68,13.02,3.2,19.18,5.71.91.23,1.83.91,2.51,1.6,5.03,4.57,10.05,9.36,11.65,16.67.46,2.52,1.83,5.02,2.51,7.77.46,1.82.91,3.88.91,5.93,0,3.43-.23,7.31-.46,10.97-.46,5.71-3.2,10.51-7.31,14.38-1.37,1.15-2.74,2.06-4.57,2.52-2.51.68-5.02,1.6-7.53,2.06-1.37.23-2.74.23-4.11,0-3.43-.69-6.62-1.6-9.82-2.74-2.06-.91-3.66-2.29-4.79-4.11-.23-.23-.23-.91,0-1.14.68-.46,1.37-.92,2.06-1.15,3.2-1.6,5.02-4.11,5.94-7.07,1.6-5.94,1.6-11.88-.46-17.36-.91-2.96-3.2-4.79-5.93-5.48-4.11-.91-8.22-1.14-12.33.91-3.43,1.6-5.71,4.34-5.71,8.22-.23,3.88-1.14,7.77-.46,11.65.68,2.52.46,5.25-.23,8.22-.46,2.06-.23,4.34-.23,6.4.68,19.18-.92,31.51,0,57.55,0,2.29-.23,4.8-.46,7.08-.68,6.63-.46,13.47.92,19.87.68,3.2,2.06,5.93,4.79,7.99,1.83,1.14,3.66,1.6,5.71,1.6h4.79c1.6-.23,2.97-.46,4.34-1.37,3.88-3.2,6.17-6.85,6.62-12.11,0-1.6.23-3.2.23-5.02,0-6.17.23-12.11.23-18.28,0-2.05.23-3.88,0-5.93,0-1.14,0-2.52-1.14-2.52-2.28,0-5.71.23-8.68.23-2.06-.23-2.97-.91-3.2-2.96-.23-2.52-.23-4.79-.23-6.85-.23-4.79-.23-9.36,0-13.7v-1.14c0-.92,1.14-1.83,2.06-1.83,3.2,0,6.39-.46,9.37.23,3.2.68,6.17.68,8.91,0,6.39-1.37,12.79-.23,18.96.23,1.14.23,1.83,1.14,2.06,2.06.23,1.14.23,2.28.23,3.42-.68,6.4-.23,12.33-.23,18.73-.23,5.48,0,10.5,0,15.99v3.2c0,8.22-.46,13.24-.46,21.47,0,5.25.68,10.05,0,15.3.68,2.52-.23,4.8.23,7.54v3.88c0,3.66-.23,4.11-3.88,3.88l-2.28.23c-2.28-.68-5.02-.46-7.31-.23-1.82.23-3.42-.46-4.34-2.29-.68-1.14-1.14-2.28-1.82-3.19-2.06-3.88-2.29-3.88-5.03-.46-1.6,2.05-3.88,2.96-5.71,4.34-2.74,1.82-4.34,2.74-7.53,3.42-2.28.46-4.8,1.15-7.08.92-2.28-.23-4.34,0-6.39.23-2.06,0-4.11-.23-5.94-.68Z"></path>
    <path class="cls-1" d="M785.58,362.39c-2.74-.46-5.48-.92-7.99-2.29-.91-.68-1.82-.91-2.74-.91-4.11-.91-7.54-2.52-10.96-4.57-.46-.46-.92-.91-1.37-1.14-2.97-1.15-4.79-3.43-6.39-6.17-2.28-4.57-4.79-9.13-5.94-14.38-.91-4.11-1.37-8.45-1.6-13.02-.46-4.57-.23-9.36,0-14.16,0-2.05.46-2.52,2.51-2.52,1.6-.23,3.2-.46,4.79-.23,7.08,0,14.39-.68,21.47,0,1.14.23,1.83.92,1.83,2.06.23,2.28,0,4.79.23,7.08.23,3.88.92,7.99,1.37,11.87,0,.69.23,1.6.46,2.29,1.83,5.71,5.94,8.91,11.88,9.13,2.28.23,4.34.23,6.39-.68,5.48-2.29,8.22-7.08,7.54-13.02-1.14-9.36-4.34-18.04-11.42-25.12l-1.83-1.6c-5.71-7.77-12.79-14.16-19.87-20.78l-2.06-2.06c-3.88-4.79-7.77-9.36-11.42-14.38-.68-.69-1.37-1.6-1.83-2.52-1.83-5.71-5.02-11.19-6.85-17.13-2.06-7.77-2.51-15.76-1.6-23.75.23-2.51.46-5.02,1.14-7.54.91-5.25,3.66-9.82,5.94-14.38l.91-1.37c4.57-5.49,10.05-10.28,17.13-12.79,1.6-.69,3.43-1.15,5.03-1.38,5.48-1.14,11.19-1.14,16.67-1.6,5.25,1.14,10.51,1.14,15.76,2.74,4.34,1.14,7.99,3.19,11.65,5.93,1.83,1.37,3.42,3.2,5.25,5.25,4.8,5.48,7.08,12.79,8.22,20.78.69,5.02.23,11.19-1.14,16.22-2.06,7.08-7.08,11.19-13.93,12.56-7.08,1.82-13.7,0-19.41-4.79-.92-.68-.92-1.37,0-1.83,3.88-2.74,5.02-6.62,5.25-10.96,0-3.88-.46-7.54-2.28-10.97-1.37-2.74-3.42-4.34-6.39-4.57-1.83-.68-5.02-.68-6.39-.46-5.48.23-7.99,2.97-10.05,8.68-1.14,2.74-1.14,5.71-1.6,8.68,0,1.14.23,2.29.69,3.66,0,.68.46,1.37.68,2.06,1.6,3.65,3.43,7.3,5.03,10.96l11.19,10.97c3.43,2.96,6.39,5.93,9.36,9.36,1.14,1.6,2.74,3.2,4.34,4.79,3.43,3.2,6.4,6.17,8.91,10.28.46.68.91,1.6,1.6,2.28,5.25,5.71,7.77,12.56,10.74,19.42,3.65,9.13,4.11,18.72,3.42,28.09-.46,6.16-2.51,12.1-4.79,17.81-.91,2.05-1.6,4.11-2.51,5.93-2.28,3.66-5.71,6.4-9.59,7.99-5.25,2.29-10.28,4.79-15.76,5.71-.92.23-1.83.68-2.97.68-5.48.23-11.19.46-16.67-.23Z"></path>
  </g>
</svg>